<?xml version="1.0" standalone="no"?><!DOCTYPE svg PUBLIC "-//W3C//DTD SVG 1.1//EN" "http://www.w3.org/Graphics/SVG/1.1/DTD/svg11.dtd"><svg t="1564981254947" class="icon" viewBox="0 0 1024 1024" version="1.1" xmlns="http://www.w3.org/2000/svg" p-id="2038" xmlns:xlink="http://www.w3.org/1999/xlink" width="200" height="200"><defs><style type="text/css"></style></defs><path d="M284.444444 199.111111c0.682667-110.108444 67.669333-199.111111 184.888889-199.111111h85.333334c117.219556 0 184.206222 89.002667 184.888889 199.111111h241.777777a42.666667 42.666667 0 0 1 0 85.333333h-938.666666a42.666667 42.666667 0 0 1 0-85.333333H284.444444z m85.333334 0h284.444444c-0.483556-65.763556-29.468444-118.784-99.555555-118.784h-85.333334c-70.087111 0-99.072 53.020444-99.555555 118.784z m455.111111 184.888889a42.666667 42.666667 0 0 1 85.333333 0v483.271111A156.586667 156.586667 0 0 1 753.777778 1024h-483.555556A156.586667 156.586667 0 0 1 113.777778 867.271111V384a42.666667 42.666667 0 0 1 85.333333 0v483.271111a71.168 71.168 0 0 0 71.111111 71.253333h483.555556c39.253333 0 71.111111-31.886222 71.111111-71.253333V384z m-412.444445 14.222222a42.666667 42.666667 0 0 1 42.666667 42.666667v341.333333a42.666667 42.666667 0 0 1-85.333333 0v-341.333333a42.666667 42.666667 0 0 1 42.666666-42.666667z m227.555556 0a42.666667 42.666667 0 0 1 42.666667 42.666667v341.333333a42.666667 42.666667 0 0 1-85.333334 0v-341.333333a42.666667 42.666667 0 0 1 42.666667-42.666667z" p-id="2039"></path></svg>