<?xml version="1.0" standalone="no"?><!DOCTYPE svg PUBLIC "-//W3C//DTD SVG 1.1//EN" "http://www.w3.org/Graphics/SVG/1.1/DTD/svg11.dtd"><svg t="1564986400205" class="icon" viewBox="0 0 1024 1024" version="1.1" xmlns="http://www.w3.org/2000/svg" p-id="3016" xmlns:xlink="http://www.w3.org/1999/xlink" width="200" height="200"><defs><style type="text/css"></style></defs><path d="M847.758222 272.298667A412.444444 412.444444 0 0 0 512 99.555556a412.558222 412.558222 0 0 0-383.488 260.323555 42.666667 42.666667 0 1 1-79.331556-31.488A497.891556 497.891556 0 0 1 512 14.222222c166.769778 0 318.151111 82.773333 409.315556 214.300445l35.328-21.020445a28.444444 28.444444 0 0 1 42.979555 24.405334l0.341333 170.865777a28.444444 28.444444 0 0 1-43.036444 24.462223L813.511111 341.504a28.444444 28.444444 0 0 1 0.028445-48.867556l34.218666-20.337777zM198.371556 765.923556A412.444444 412.444444 0 0 0 534.129778 938.666667a412.558222 412.558222 0 0 0 383.488-260.323556 42.666667 42.666667 0 1 1 79.331555 31.488A497.891556 497.891556 0 0 1 534.129778 1024a497.720889 497.720889 0 0 1-409.315556-214.300444l-35.328 21.020444a28.444444 28.444444 0 0 1-42.979555-24.405333l-0.341334-170.865778a28.444444 28.444444 0 0 1 43.036445-24.462222l143.416889 85.731555a28.444444 28.444444 0 0 1-0.028445 48.867556l-34.218666 20.337778z" p-id="3017"></path></svg>