<?xml version="1.0" standalone="no"?><!DOCTYPE svg PUBLIC "-//W3C//DTD SVG 1.1//EN" "http://www.w3.org/Graphics/SVG/1.1/DTD/svg11.dtd"><svg t="1564974909964" class="icon" viewBox="0 0 1024 1024" version="1.1" xmlns="http://www.w3.org/2000/svg" p-id="1186" xmlns:xlink="http://www.w3.org/1999/xlink" width="200" height="200"><defs><style type="text/css"></style></defs><path d="M733.3632 793.4208a402.176 402.176 0 0 1-235.4944 75.264C279.4752 868.7104 102.4 697.1904 102.4 485.5808 102.4 273.92 279.4752 102.4 497.8688 102.4c218.4192 0 395.4944 171.52 395.4944 383.1552 0 98.5088-38.4 188.3392-101.4528 256.2304l118.1184 114.4064a37.7344 37.7344 0 0 1 0 54.1952l-1.28 1.2032a38.4 38.4 0 0 1-53.4272 0l-121.9584-118.1696z m-235.4944-1.3568c174.7456 0 316.416-137.216 316.416-306.5088S672.5888 179.0208 497.8432 179.0208c-174.72 0-316.3648 137.2416-316.3648 306.5344 0 169.2672 141.6448 306.5088 316.3648 306.5088z" p-id="1187"></path></svg>