<?xml version="1.0" standalone="no"?><!DOCTYPE svg PUBLIC "-//W3C//DTD SVG 1.1//EN" "http://www.w3.org/Graphics/SVG/1.1/DTD/svg11.dtd"><svg t="1564974626179" class="icon" viewBox="0 0 1024 1024" version="1.1" xmlns="http://www.w3.org/2000/svg" p-id="1066" xmlns:xlink="http://www.w3.org/1999/xlink" width="200" height="200"><defs><style type="text/css"></style></defs><path d="M513.024 0c134.3488 0 243.2512 108.8768 243.2512 243.2v254.7968c0 134.3232-108.9024 235.9552-243.2768 235.9552-134.3488 0-243.2768-101.632-243.2768-235.9552V243.2c0-134.3232 108.928-243.2 243.2768-243.2z m0 76.8a166.4256 166.4256 0 0 0-166.4768 166.4v254.7968c0 91.904 74.5216 159.1552 166.4512 159.1552 91.9296 0 166.4512-67.2512 166.4512-159.1552V243.2c0-91.904-74.496-166.4-166.4512-166.4z m38.4 804.7104V947.2h140.8512a38.4 38.4 0 0 1 0 76.8H333.7216a38.4 38.4 0 0 1 0-76.8h140.8768v-65.536C275.3536 865.2032 128 718.6944 128 537.6v-76.8a38.4 38.4 0 0 1 76.8256 0v76.8c0 147.0208 129.3568 268.8 307.3536 268.8 177.9712 0 306.9952-121.7792 306.9952-268.8v-76.8A38.4 38.4 0 0 1 896 460.8v76.8c0 180.5824-146.2272 326.784-344.576 343.9104z" p-id="1067"></path></svg>